<?xml version="1.0" encoding="UTF-8"?>
<svg id="Layer_2" xmlns="http://www.w3.org/2000/svg" version="1.1" viewBox="0 0 1080 1080">
  <!-- Generator: Adobe Illustrator 30.2.1, SVG Export Plug-In . SVG Version: 2.1.1 Build 1)  -->
  <defs>
    <style>
      .st0 {
        fill: #eb826f;
      }

      .st1 {
        display: none;
        fill: none;
        stroke: #eb826f;
        stroke-miterlimit: 10;
        stroke-width: 80px;
      }
    </style>
  </defs>
  <circle class="st1" cx="581.51" cy="486.61" r="131.01"/>
  <path class="st0" d="M399.14,441.57s-14.85,38.1,5.2,80.17c0,0-49.22,55.34-18.16,120s120.85,62.12,155.58,11.29,27.34-114-31.95-134.61c0,0-17-49.04,12.36-79.53,0,0,85.47,20.07,111.45,122.29s-52.1,167.15-52.1,167.15c0,0-105.5,97.92-225.26,2.92-115.2-91.39-56.58-276.97,42.9-289.67Z"/>
  <path class="st0" d="M651.96,630.17s14.29-37.52-3.99-80.39c0,0,47.85-48.02,19.51-113.92s-118.15-67.11-154.97-17.78c-36.82,49.33-32.42,111.49,25.96,134.56,0,0,20.99,49.04-9.62,78.28,0,0-90.26-21.69-111.95-124.9-21.69-103.21,59.03-164.83,59.03-164.83,0,0,109.5-93.44,225.19,6.48,111.29,96.11,50.76,273.95-49.16,282.49Z"/>
</svg>